<?xml version="1.0" encoding="iso-8859-1"?>
<!-- Generator: Adobe Illustrator 19.0.0, SVG Export Plug-In . SVG Version: 6.00 Build 0)  -->
<svg version="1.1" id="Capa_1" xmlns="http://www.w3.org/2000/svg" xmlns:xlink="http://www.w3.org/1999/xlink" x="0px" y="0px"
	 viewBox="0 0 512 512" style="enable-background:new 0 0 512 512;" xml:space="preserve">
<g>
	<g>
		<path d="M473.6,0H38.4C17.229,0,0,17.229,0,38.4v435.2C0,494.771,17.229,512,38.4,512h435.2c21.171,0,38.4-17.229,38.4-38.4V38.4
			C512,17.229,494.771,0,473.6,0z M494.933,473.6c0,11.767-9.566,21.333-21.333,21.333H38.4c-11.759,0-21.333-9.566-21.333-21.333
			V38.4c0-11.768,9.574-21.333,21.333-21.333h435.2c11.759,0,21.333,9.566,21.333,21.333V473.6z"/>
	</g>
</g>
<g>
	<g>
		<path d="M76.8,34.133H42.667c-4.71,0-8.533,3.814-8.533,8.533V76.8c0,4.719,3.823,8.533,8.533,8.533H76.8
			c4.71,0,8.533-3.814,8.533-8.533V42.667C85.333,37.948,81.51,34.133,76.8,34.133z M68.267,68.267H51.2V51.2h17.067V68.267z"/>
	</g>
</g>
<g>
	<g>
		<path d="M145.067,34.133h-34.133c-4.71,0-8.533,3.814-8.533,8.533V76.8c0,4.719,3.823,8.533,8.533,8.533h34.133
			c4.71,0,8.533-3.814,8.533-8.533V42.667C153.6,37.948,149.777,34.133,145.067,34.133z M136.533,68.267h-17.067V51.2h17.067V68.267
			z"/>
	</g>
</g>
<g>
	<g>
		<path d="M213.333,34.133H179.2c-4.71,0-8.533,3.814-8.533,8.533V76.8c0,4.719,3.823,8.533,8.533,8.533h34.133
			c4.71,0,8.533-3.814,8.533-8.533V42.667C221.867,37.948,218.044,34.133,213.333,34.133z M204.8,68.267h-17.067V51.2H204.8V68.267z
			"/>
	</g>
</g>
<g>
	<g>
		<path d="M473.6,0H38.4C17.229,0,0,17.229,0,38.4v72.533c0,4.719,3.823,8.533,8.533,8.533h494.933c4.71,0,8.533-3.814,8.533-8.533
			V38.4C512,17.229,494.771,0,473.6,0z M494.933,102.4H17.067v-64c0-11.768,9.574-21.333,21.333-21.333h435.2
			c11.759,0,21.333,9.566,21.333,21.333V102.4z"/>
	</g>
</g>
<g>
	<g>
		<path d="M469.333,136.533H42.667c-4.71,0-8.533,3.814-8.533,8.533v324.267c0,4.719,3.823,8.533,8.533,8.533h426.667
			c4.71,0,8.533-3.814,8.533-8.533V145.067C477.867,140.348,474.044,136.533,469.333,136.533z M460.8,460.8H51.2V153.6h409.6V460.8z
			"/>
	</g>
</g>
<g>
	<g>
		<path d="M384,281.6h-15.445c-3.268,0-6.144-2.022-6.997-4.924c-2.406-8.175-5.478-15.804-8.883-22.05
			c-1.468-2.688-0.879-6.17,1.425-8.482l10.931-10.931c1.604-1.596,2.5-3.763,2.5-6.033c0-2.27-0.896-4.429-2.5-6.033
			l-24.969-24.969c-3.2-3.209-8.866-3.209-12.066,0l-10.931,10.931c-2.313,2.295-5.803,2.893-8.491,1.425
			c-6.298-3.43-13.918-6.502-22.042-8.883c-2.901-0.853-4.932-3.729-4.932-6.997V179.2c0-4.719-3.823-8.533-8.533-8.533h-34.133
			c-4.71,0-8.533,3.814-8.533,8.533v15.454c0,3.26-2.031,6.135-4.924,6.989c-8.132,2.389-15.753,5.461-22.059,8.892
			c-2.688,1.476-6.178,0.887-8.482-1.425l-10.931-10.931c-1.596-1.604-3.772-2.5-6.033-2.5c-2.261,0-4.429,0.896-6.033,2.5
			l-24.969,24.969c-1.604,1.596-2.5,3.763-2.5,6.033s0.896,4.429,2.5,6.033l10.931,10.931c2.304,2.304,2.893,5.794,1.425,8.482
			c-3.405,6.246-6.477,13.875-8.883,22.05c-0.853,2.901-3.729,4.924-6.997,4.924H128c-4.71,0-8.533,3.814-8.533,8.533v34.133
			c0,4.719,3.823,8.533,8.533,8.533h15.445c3.268,0,6.144,2.022,6.997,4.924c2.406,8.175,5.478,15.804,8.883,22.05
			c1.468,2.688,0.879,6.17-1.425,8.482l-10.931,10.931c-1.604,1.596-2.5,3.763-2.5,6.033s0.896,4.429,2.5,6.033l24.969,24.969
			c3.2,3.191,8.866,3.191,12.066,0l10.931-10.931c2.313-2.295,5.803-2.901,8.491-1.425c5.641,3.072,13.201,5.982,23.108,8.883
			c2.901,0.853,4.932,3.729,4.932,6.997V435.2c0,4.719,3.823,8.533,8.533,8.533h32c4.71,0,8.533-3.814,8.533-8.533v-15.454
			c0-3.26,2.031-6.135,4.924-6.989c9.916-2.91,17.485-5.82,23.125-8.892c2.688-1.468,6.178-0.879,8.482,1.425l10.931,10.931
			c1.596,1.604,3.772,2.5,6.033,2.5c2.261,0,4.429-0.896,6.033-2.5l24.969-24.969c1.604-1.596,2.5-3.763,2.5-6.033
			c0-2.27-0.896-4.429-2.5-6.033l-10.931-10.931c-2.304-2.304-2.893-5.794-1.425-8.482c3.405-6.246,6.477-13.875,8.883-22.05
			c0.853-2.901,3.729-4.924,6.997-4.924H384c4.71,0,8.533-3.814,8.533-8.533v-34.133C392.533,285.414,388.71,281.6,384,281.6z
			 M375.467,315.733h-6.912c-10.786,0-20.395,7.057-23.373,17.178c-2.074,7.023-4.659,13.491-7.501,18.697
			c-5.06,9.293-3.277,21.094,4.343,28.715l4.898,4.898l-12.902,12.902l-4.898-4.898c-7.629-7.629-19.43-9.395-28.715-4.343
			c-4.489,2.441-11.145,4.966-19.772,7.501c-10.112,2.978-17.169,12.587-17.169,23.364v6.921h-14.925v-6.921
			c0-10.769-7.066-20.378-17.186-23.373c-8.619-2.526-15.266-5.052-19.755-7.492c-9.293-5.069-21.094-3.294-28.723,4.343
			l-4.898,4.898l-12.902-12.902l4.898-4.898c7.62-7.612,9.412-19.422,4.343-28.715c-2.842-5.205-5.436-11.674-7.501-18.697
			c-2.978-10.121-12.587-17.178-23.373-17.178h-6.912v-17.067h6.912c10.786,0,20.395-7.057,23.373-17.178
			c2.074-7.023,4.659-13.491,7.501-18.697c5.06-9.293,3.277-21.094-4.344-28.715l-4.898-4.898l12.902-12.902l4.898,4.898
			c7.629,7.637,19.439,9.412,28.715,4.343c5.248-2.85,11.708-5.453,18.705-7.501c10.112-2.978,17.169-12.587,17.169-23.364v-6.921
			h17.067v6.921c0,10.769,7.057,20.378,17.178,23.373c6.98,2.039,13.449,4.642,18.688,7.492c9.293,5.052,21.094,3.285,28.723-4.344
			l4.898-4.898l12.902,12.902l-4.898,4.898c-7.62,7.612-9.412,19.422-4.343,28.715c2.842,5.205,5.436,11.674,7.501,18.697
			c2.978,10.121,12.587,17.178,23.373,17.178h6.912V315.733z"/>
	</g>
</g>
<g>
	<g>
		<path d="M256,247.467c-32.939,0-59.733,26.803-59.733,59.733c0,32.93,26.795,59.733,59.733,59.733s59.733-26.803,59.733-59.733
			C315.733,274.27,288.939,247.467,256,247.467z M256,349.867c-23.526,0-42.667-19.14-42.667-42.667
			c0-23.526,19.14-42.667,42.667-42.667c23.526,0,42.667,19.14,42.667,42.667C298.667,330.726,279.526,349.867,256,349.867z"/>
	</g>
</g>
<g>
	<g>
		<path d="M110.933,170.667H76.8c-4.71,0-8.533,3.814-8.533,8.533v34.133c0,4.719,3.823,8.533,8.533,8.533s8.533-3.814,8.533-8.533
			v-25.6h25.6c4.71,0,8.533-3.814,8.533-8.533S115.644,170.667,110.933,170.667z"/>
	</g>
</g>
<g>
	<g>
		<path d="M435.2,392.533c-4.71,0-8.533,3.814-8.533,8.533v25.6h-25.6c-4.71,0-8.533,3.814-8.533,8.533s3.823,8.533,8.533,8.533
			H435.2c4.71,0,8.533-3.814,8.533-8.533v-34.133C443.733,396.348,439.91,392.533,435.2,392.533z"/>
	</g>
</g>
<g>
</g>
<g>
</g>
<g>
</g>
<g>
</g>
<g>
</g>
<g>
</g>
<g>
</g>
<g>
</g>
<g>
</g>
<g>
</g>
<g>
</g>
<g>
</g>
<g>
</g>
<g>
</g>
<g>
</g>
</svg>
